<?xml version="1.0" standalone="no"?><!DOCTYPE svg PUBLIC "-//W3C//DTD SVG 1.1//EN" "http://www.w3.org/Graphics/SVG/1.1/DTD/svg11.dtd"><svg t="1658901468583" class="icon" viewBox="0 0 1024 1024" version="1.1" xmlns="http://www.w3.org/2000/svg" p-id="23936" xmlns:xlink="http://www.w3.org/1999/xlink" width="64" height="64"><defs><style type="text/css">@font-face { font-family: feedback-iconfont; src: url("//at.alicdn.com/t/font_1031158_u69w8yhxdu.woff2?t=1630033759944") format("woff2"), url("//at.alicdn.com/t/font_1031158_u69w8yhxdu.woff?t=1630033759944") format("woff"), url("//at.alicdn.com/t/font_1031158_u69w8yhxdu.ttf?t=1630033759944") format("truetype"); }
</style></defs><path d="M867.3 519.9c-4.4-4.5-10.2-6.9-16.6-6.9-6.2 0-12.2 2.6-16.6 6.9l-42.4 42.4 89.4 89.3 39.9-45c4.5-4.4 6.9-10.4 6.9-16.5 0-6.2-2.6-12.2-6.9-16.5l-53.7-53.7zM575 425.4H317c-28.3 0-51.2-22.9-51.2-51.1 0-28.3 22.9-51.1 51.2-51.1h258c28.3 0 51.2 22.9 51.2 51.1 0 28.3-22.9 51.1-51.2 51.1zM471.3 631H317c-28.3 0-51.2-22.9-51.2-51.1 0-28.3 22.9-51.1 51.2-51.1h154.3c28.3 0 51.2 22.9 51.2 51.1 0 28.3-22.9 51.1-51.2 51.1zM692.7 88.2H220.6c-68.6 0-124.3 55.6-124.3 124.2v599.7c0 68.6 55.7 124.2 124.3 124.2h171.7V825l424.8-434.2V212.5c0-68.6-55.7-124.3-124.4-124.3zM504.4 847v89.3H594l258.9-261.4-89.4-89.5L504.4 847z" p-id="23937"></path></svg>