<?xml version="1.0" encoding="UTF-8"?>
<svg width="70px" height="70px" viewBox="0 0 70 70" version="1.1" xmlns="http://www.w3.org/2000/svg" xmlns:xlink="http://www.w3.org/1999/xlink">
    <title>顶部</title>
    <g id="顶部" stroke="none" stroke-width="1" fill="none" fill-rule="evenodd">
        <g id="编组-21备份">
            <circle id="椭圆形备份" fill="#FFFFFF" cx="35" cy="35" r="35"></circle>
            <g id="编组" transform="translate(16.500000, 16.000000)" fill="#5EA9A3" fill-rule="nonzero">
                <path d="M18.5,7.87499992 C19.4526156,7.87499992 20.3273188,8.41210781 20.7731429,9.27150002 C20.9978849,9.3922643 21.2033681,9.54715345 21.3825714,9.73087502 L34.1111429,22.7246251 C34.7796026,23.3836955 35.0476895,24.3596795 34.8123641,25.2774568 C34.5770387,26.195234 33.8749231,26.9119771 32.975876,27.1522051 C32.0768289,27.3924331 31.1207629,27.1187611 30.4751429,26.4363751 L21.0714286,16.83675 L21.0714286,39.3749999 C21.0714286,40.8247476 19.9201608,42.0000001 18.5,42.0000001 C17.0798392,42.0000001 15.9285714,40.8247476 15.9285714,39.3749999 L15.9285714,17.0205 L6.70742857,26.4363751 C6.06180851,27.1187611 5.10574256,27.3924331 4.20669545,27.1522051 C3.30764834,26.9119771 2.60553273,26.195234 2.37020731,25.2774568 C2.13488189,24.3596795 2.40296878,23.3836955 3.07142857,22.7246251 L15.8,9.73087502 C15.9105714,9.61800002 16.0288571,9.51825002 16.1522857,9.42900002 C16.5661268,8.48365477 17.4856837,7.87499992 18.5,7.87499992 Z M33.9285714,0 C35.3487322,0 36.5,1.17525253 36.5,2.62500001 C36.5,4.07474748 35.3487322,5.25000001 33.9285714,5.25000001 L3.07142857,5.25000001 C1.65126779,5.25000001 0.5,4.07474748 0.5,2.62500001 C0.5,1.17525253 1.65126779,0 3.07142857,0 L33.9285714,0 Z" id="形状"></path>
            </g>
        </g>
    </g>
</svg>