<?xml version="1.0" standalone="no"?><!DOCTYPE svg PUBLIC "-//W3C//DTD SVG 1.1//EN" "http://www.w3.org/Graphics/SVG/1.1/DTD/svg11.dtd"><svg t="1661166021673" class="icon" viewBox="0 0 1024 1024" version="1.1" xmlns="http://www.w3.org/2000/svg" p-id="2369" xmlns:xlink="http://www.w3.org/1999/xlink" width="200" height="200"><defs><style type="text/css">@font-face { font-family: feedback-iconfont; src: url("//at.alicdn.com/t/font_1031158_u69w8yhxdu.woff2?t=1630033759944") format("woff2"), url("//at.alicdn.com/t/font_1031158_u69w8yhxdu.woff?t=1630033759944") format("woff"), url("//at.alicdn.com/t/font_1031158_u69w8yhxdu.ttf?t=1630033759944") format("truetype"); }
</style></defs><path d="M512 1024C229.216 1024 0 794.784 0 512S229.216 0 512 0s512 229.216 512 512-229.216 512-512 512z m118.912-277.216c31.744-19.584 83.936-40.128 36.48-101.6-47.456-61.44-69.216-42.176-101.92-21.952-22.912 14.08-60.704-36.16-91.744-86.656-31.008-50.528-58.72-107.04-35.84-121.152 32.704-20.224 59.648-31.04 26.336-101.248-33.28-70.176-75.104-32.64-106.88-13.056-36.544 22.624-34.336 140.544 49.344 276.864 83.68 136.32 187.648 191.424 224.224 168.8z" p-id="2370"></path></svg>