<?xml version="1.0" standalone="no"?><!DOCTYPE svg PUBLIC "-//W3C//DTD SVG 1.1//EN" "http://www.w3.org/Graphics/SVG/1.1/DTD/svg11.dtd"><svg t="1666764321965" class="icon" viewBox="0 0 1024 1024" version="1.1" xmlns="http://www.w3.org/2000/svg" p-id="3072" xmlns:xlink="http://www.w3.org/1999/xlink" width="200" height="200"><path d="M732.2 191h-568c-55.2 0-100 44.8-100 100v568c0 55.2 44.8 100 100 100h568c55.2 0 100-44.8 100-100V291c0-55.3-44.8-100-100-100zM591.1 607h-111v111c0 17.7-14.3 32-32 32s-32-14.3-32-32V607h-111c-17.7 0-32-14.3-32-32s14.3-32 32-32h111V432c0-17.7 14.3-32 32-32s32 14.3 32 32v111h111c17.7 0 32 14.3 32 32s-14.3 32-32 32z" p-id="3073"></path><path d="M858.1 65.2H290c-41.7 0-77.4 25.5-92.4 61.8h534.6c22.1 0 43.6 4.3 63.9 12.9 19.5 8.3 37.1 20.1 52.1 35.1s26.9 32.6 35.1 52.1c8.6 20.3 12.9 41.7 12.9 63.9v534.8c36.3-15 61.9-50.7 61.9-92.5v-568c0-55.3-44.8-100.1-100-100.1z" p-id="3074"></path></svg>