<?xml version="1.0" standalone="no"?><!DOCTYPE svg PUBLIC "-//W3C//DTD SVG 1.1//EN" "http://www.w3.org/Graphics/SVG/1.1/DTD/svg11.dtd"><svg t="1656658258674" class="icon" viewBox="0 0 1024 1024" version="1.1" xmlns="http://www.w3.org/2000/svg" p-id="52638" xmlns:xlink="http://www.w3.org/1999/xlink" width="200" height="200"><defs><style type="text/css">@font-face { font-family: feedback-iconfont; src: url("//at.alicdn.com/t/font_1031158_u69w8yhxdu.woff2?t=1630033759944") format("woff2"), url("//at.alicdn.com/t/font_1031158_u69w8yhxdu.woff?t=1630033759944") format("woff"), url("//at.alicdn.com/t/font_1031158_u69w8yhxdu.ttf?t=1630033759944") format("truetype"); }
</style></defs><path d="M632.38 820.53h-49.5c-9.94 0-18-8.06-18-18s8.06-18 18-18h49.5c9.94 0 18 8.06 18 18s-8.06 18-18 18z" fill="#5882ED" p-id="52639"></path><path d="M916.23 820.53H753.88c-9.94 0-18-8.06-18-18s8.06-18 18-18h155.36V640.76c-67.59-5.47-120.86-60.27-120.86-126.84s53.27-121.37 120.86-126.84V239.47H114.76v147.55c67.95 5.13 121.61 60.08 121.61 126.9 0 66.82-53.67 121.77-121.61 126.9v143.71h391.61c9.94 0 18 8.06 18 18s-8.06 18-18 18h-398.6c-16 0-29.01-12.81-29.01-28.56V622.96c0-4.97 2.06-9.72 5.68-13.12s8.51-5.16 13.46-4.84c2.24 0.14 4.42 0.21 6.48 0.21 52.93 0 96-40.95 96-91.29s-43.06-91.29-96-91.29c-2.07 0-4.25 0.07-6.48 0.21-4.96 0.31-9.83-1.44-13.46-4.84-3.62-3.4-5.68-8.15-5.68-13.12V232.03c0-15.75 13.02-28.56 29.01-28.56h808.45c16 0 29.01 12.81 29.01 28.56v172.8c0 4.95-2.04 9.68-5.64 13.08-3.6 3.4-8.45 5.17-13.38 4.89-2.06-0.12-3.97-0.17-5.85-0.17-52.93 0-96 40.95-96 91.29s43.07 91.29 96 91.29c1.87 0 3.78-0.06 5.85-0.17 4.92-0.29 9.78 1.49 13.38 4.89 3.6 3.4 5.64 8.13 5.64 13.08v168.97c0.01 15.74-13.01 28.55-29 28.55z" fill="#5882ED" p-id="52640"></path><path d="M420.88 494.15c-38.46 0-69.75-31.29-69.75-69.75s31.29-69.75 69.75-69.75 69.75 31.29 69.75 69.75c-0.01 38.46-31.29 69.75-69.75 69.75z m0-103.5c-18.61 0-33.75 15.14-33.75 33.75s15.14 33.75 33.75 33.75 33.75-15.14 33.75-33.75c-0.01-18.61-15.15-33.75-33.75-33.75zM608.38 680.9c-38.46 0-69.75-31.29-69.75-69.75s31.29-69.75 69.75-69.75 69.75 31.29 69.75 69.75-31.3 69.75-69.75 69.75z m0-103.5c-18.61 0-33.75 15.14-33.75 33.75s15.14 33.75 33.75 33.75 33.75-15.14 33.75-33.75-15.15-33.75-33.75-33.75zM383.38 668.9c-4.6 0-9.2-1.75-12.71-5.25-7.04-7.02-7.05-18.42-0.03-25.46l276.75-277.5c7.02-7.04 18.42-7.05 25.46-0.03 7.04 7.02 7.05 18.42 0.03 25.46l-276.75 277.5a18 18 0 0 1-12.75 5.28z" fill="#5882ED" p-id="52641"></path></svg>