<?xml version="1.0" standalone="no"?><!DOCTYPE svg PUBLIC "-//W3C//DTD SVG 1.1//EN" "http://www.w3.org/Graphics/SVG/1.1/DTD/svg11.dtd"><svg t="1658997530911" class="icon" viewBox="0 0 1024 1024" version="1.1" xmlns="http://www.w3.org/2000/svg" p-id="2542" xmlns:xlink="http://www.w3.org/1999/xlink" width="200" height="200"><defs><style type="text/css">@font-face { font-family: feedback-iconfont; src: url("//at.alicdn.com/t/font_1031158_u69w8yhxdu.woff2?t=1630033759944") format("woff2"), url("//at.alicdn.com/t/font_1031158_u69w8yhxdu.woff?t=1630033759944") format("woff"), url("//at.alicdn.com/t/font_1031158_u69w8yhxdu.ttf?t=1630033759944") format("truetype"); }
</style></defs><path d="M987.428571 109.714286H36.571429c-20.228571 0-36.571429 16.342857-36.571429 36.571428v182.857143h1024V146.285714c0-20.228571-16.342857-36.571429-36.571429-36.571428zM0 877.714286c0 20.228571 16.342857 36.571429 36.571429 36.571428h950.857142c20.228571 0 36.571429-16.342857 36.571429-36.571428V429.714286H0v448z m661.714286-210.285715c0-5.028571 4.114286-9.142857 9.142857-9.142857h188.571428c5.028571 0 9.142857 4.114286 9.142858 9.142857v82.285715c0 5.028571-4.114286 9.142857-9.142858 9.142857H670.857143c-5.028571 0-9.142857-4.114286-9.142857-9.142857v-82.285715z" p-id="2543"></path></svg>