<?xml version="1.0" standalone="no"?><!DOCTYPE svg PUBLIC "-//W3C//DTD SVG 1.1//EN" "http://www.w3.org/Graphics/SVG/1.1/DTD/svg11.dtd"><svg t="1653464434074" class="icon" viewBox="0 0 1024 1024" version="1.1" xmlns="http://www.w3.org/2000/svg" p-id="2935" xmlns:xlink="http://www.w3.org/1999/xlink" width="16" height="16"><defs><style type="text/css">@font-face { font-family: feedback-iconfont; src: url("//at.alicdn.com/t/font_1031158_u69w8yhxdu.woff2?t=1630033759944") format("woff2"), url("//at.alicdn.com/t/font_1031158_u69w8yhxdu.woff?t=1630033759944") format("woff"), url("//at.alicdn.com/t/font_1031158_u69w8yhxdu.ttf?t=1630033759944") format("truetype"); }
</style></defs><path d="M877.860571 413.257143L576.950857 709.485714c-12.726857 12.580571-29.549714 18.578286-46.372571 18.139429-16.676571 0.438857-33.645714-5.705143-46.372572-18.139429L183.442286 413.257143a61.908114 61.908114 0 0 1 0.146285-88.356572l-1.462857 1.462858 1.901715-1.755429a64.351086 64.351086 0 0 1 82.797714-0.146286l3.510857 3.218286 260.534857 256.438857L791.405714 327.68c23.552-23.259429 61.293714-24.283429 86.162286-3.072l1.901714 1.755429 1.755429 1.901714c21.211429 24.722286 20.187429 61.878857-3.364572 84.992z" p-id="2936"></path></svg>