<?xml version="1.0" standalone="no"?><!DOCTYPE svg PUBLIC "-//W3C//DTD SVG 1.1//EN" "http://www.w3.org/Graphics/SVG/1.1/DTD/svg11.dtd"><svg t="1659669856232" class="icon" viewBox="0 0 1024 1024" version="1.1" xmlns="http://www.w3.org/2000/svg" p-id="1952" xmlns:xlink="http://www.w3.org/1999/xlink" width="200" height="200"><defs><style type="text/css">@font-face { font-family: feedback-iconfont; src: url("//at.alicdn.com/t/font_1031158_u69w8yhxdu.woff2?t=1630033759944") format("woff2"), url("//at.alicdn.com/t/font_1031158_u69w8yhxdu.woff?t=1630033759944") format("woff"), url("//at.alicdn.com/t/font_1031158_u69w8yhxdu.ttf?t=1630033759944") format("truetype"); }
</style></defs><path d="M85.930667 950.016c0 24.576 7.125333 31.317333 29.44 31.317333l353.365333 0L468.736 511.744 85.930667 511.744 85.930667 950.016zM555.264 981.333333l353.365333 0c22.357333 0 29.44-6.698667 29.44-31.317333L938.069333 511.744l-382.848 0L555.221333 981.333333zM938.666667 256l-213.333333 0c51.498667-11.733333 105.898667-49.706667 112.597333-94.293333 7.850667-50.858667-52.565333-127.957333-125.653333-118.186667-87.424 12.117333-151.509333 89.258667-196.736 149.077333C470.656 133.930667 412.16 65.408 328.362667 45.482667c-81.152-19.2-136.746667 64.938667-135.253333 116.992C194.56 206.72 245.717333 244.309333 298.666667 256L85.333333 256C58.965333 256 42.666667 270.848 42.666667 298.666667l0 170.581333L469.333333 469.333333 469.333333 256l85.333333 0 0 213.333333 426.666667-0.085333L981.333333 298.666667C981.333333 270.848 964.992 256 938.666667 256zM251.648 178.176C236.885333 161.749333 246.869333 139.434667 256.128 122.581333c17.024-29.696 40.746667-47.744 81.152-30.933333 56.32 23.509333 97.792 73.216 131.584 117.802667C397.312 217.344 290.56 220.416 251.648 178.176zM562.944 208.682667c34.816-44.629333 75.221333-89.941333 131.157333-117.802667 58.581333-28.970667 113.024 49.322667 85.205333 86.912-21.418667 28.544-89.258667 31.232-125.909333 32.853333C623.317333 212.181333 592.896 211.456 562.944 208.682667z" p-id="1953"></path></svg>