<?xml version="1.0" standalone="no"?><!DOCTYPE svg PUBLIC "-//W3C//DTD SVG 1.1//EN" "http://www.w3.org/Graphics/SVG/1.1/DTD/svg11.dtd"><svg t="1655106567638" class="icon" viewBox="0 0 1024 1024" version="1.1" xmlns="http://www.w3.org/2000/svg" p-id="24900" xmlns:xlink="http://www.w3.org/1999/xlink" width="64" height="64"><defs><style type="text/css">@font-face { font-family: feedback-iconfont; src: url("//at.alicdn.com/t/font_1031158_u69w8yhxdu.woff2?t=1630033759944") format("woff2"), url("//at.alicdn.com/t/font_1031158_u69w8yhxdu.woff?t=1630033759944") format("woff"), url("//at.alicdn.com/t/font_1031158_u69w8yhxdu.ttf?t=1630033759944") format("truetype"); }
</style></defs><path d="M961.142857 950.857143q-25.142857 0-75.714286-2t-76.285714-2q-25.142857 0-75.428571 2t-75.428571 2q-13.714286 0-21.142857-11.714286t-7.428571-26q0-17.714286 9.714286-26.285714t22.285714-9.714286 29.142857-4 25.714286-8.571429q18.857143-12 18.857143-80l-0.571429-223.428571q0-12-0.571429-17.714286-7.428571-2.285714-28.571429-2.285714l-385.714286 0q-21.714286 0-29.142857 2.285714-0.571429 5.714286-0.571429 17.714286l-0.571429 212q0 81.142857 21.142857 93.714286 9.142857 5.714286 27.428571 7.428571t32.571429 2 25.714286 8.571429 11.428571 26q0 14.857143-7.142857 27.428571t-20.857143 12.571429q-26.857143 0-79.714286-2t-79.142857-2q-24.571429 0-73.142857 2t-72.571429 2q-13.142857 0-20.285714-12t-7.142857-25.714286q0-17.142857 8.857143-25.714286t20.571429-10 27.142857-4.285714 24-8.571429q18.857143-13.142857 18.857143-81.714286l-0.571429-32.571429 0-464.571429q0-1.714286 2.857143-14.857143t0-20.857143-0.857143-22-2-24-3.714286-20.857143-6.285714-18-9.142857-10.285714q-8.571429-5.714286-25.714286-6.857143t-30.285714-1.142857-23.428571-8-10.285714-25.714286q0-14.857143 6.857143-27.428571t20.571429-12.571429q26.285714 0 79.142857 2t79.142857 2q24 0 72.285714-2t72.285714-2q14.285714 0 21.428571 12.571429t7.142857 27.428571q0 17.142857-9.714286 24.857143t-22 8.285714-28.285714 2.285714-24.571429 7.428571q-20 12-20 91.428571l0.571429 182.857143q0 12 0.571429 18.285714 7.428571 1.714286 22.285714 1.714286l399.428571 0q14.285714 0 21.714286-1.714286 0.571429-6.285714 0.571429-18.285714l0.571429-182.857143q0-79.428571-20-91.428571-10.285714-6.285714-33.428571-7.142857t-37.714286-7.428571-14.571429-28.285714q0-14.857143 7.142857-27.428571t21.428571-12.571429q25.142857 0 75.428571 2t75.428571 2q24.571429 0 73.714286-2t73.714286-2q14.285714 0 21.428571 12.571429t7.142857 27.428571q0 17.142857-10 25.142857t-22.857143 8.285714-29.428571 1.714286-25.142857 7.142857q-20 13.142857-20 92l0.571429 538.857143q0 68 19.428571 80 9.142857 5.714286 26.285714 7.714286t30.571429 2.571429 23.714286 8.857143 10.285714 25.428571q0 14.857143-6.857143 27.428571t-20.571429 12.571429z" p-id="24901"></path></svg>