<svg width="15" height="16" viewBox="0 0 15 16" fill="none" xmlns="http://www.w3.org/2000/svg">
<g id="Vector">
<path d="M1.85036 16C1.36766 15.99 0.906987 15.7895 0.562891 15.4398C0.218796 15.09 0.0173848 14.6175 0 14.1192V1.89728C0.016383 1.3971 0.216991 0.922245 0.560868 0.569647C0.904745 0.217048 1.36596 0.0133011 1.85036 0H9.65886C10.1443 0.012857 10.6068 0.21617 10.9522 0.568602C11.2977 0.921034 11.5002 1.39613 11.5187 1.89728V3.45279C11.5145 3.61336 11.4498 3.76589 11.3384 3.87793C11.2269 3.98998 11.0776 4.05267 10.922 4.05267C10.7665 4.05267 10.6172 3.98998 10.5057 3.87793C10.3943 3.76589 10.3296 3.61336 10.3254 3.45279V1.89728C10.3071 1.72283 10.2301 1.56054 10.1078 1.43871C9.98554 1.31688 9.82574 1.24325 9.65628 1.23063H1.85036C1.6819 1.24371 1.52331 1.31773 1.40249 1.43966C1.28167 1.5616 1.20636 1.72365 1.18982 1.89728V14.1192C1.20689 14.2911 1.28279 14.4511 1.40387 14.5703C1.52496 14.6896 1.68328 14.7603 1.85036 14.7698H9.65499C9.82292 14.7606 9.98224 14.6901 10.1046 14.571C10.227 14.4519 10.3045 14.2918 10.3233 14.1192V12.5161C10.3211 12.4337 10.335 12.3517 10.364 12.275C10.3931 12.1982 10.4367 12.1283 10.4924 12.0692C10.548 12.0102 10.6146 11.9633 10.6881 11.9312C10.7616 11.8992 10.8405 11.8827 10.9203 11.8827C11.0001 11.8827 11.0791 11.8992 11.1526 11.9312C11.2261 11.9633 11.2926 12.0102 11.3483 12.0692C11.404 12.1283 11.4476 12.1982 11.4766 12.275C11.5057 12.3517 11.5195 12.4337 11.5174 12.5161V14.1192C11.4977 14.6185 11.2942 15.0913 10.9484 15.4409C10.6025 15.7904 10.1405 15.9904 9.65671 16H1.85036ZM11.6258 10.9939C11.5701 10.937 11.5259 10.8693 11.4957 10.7947C11.4656 10.72 11.45 10.6399 11.45 10.559C11.45 10.4781 11.4656 10.3981 11.4957 10.3234C11.5259 10.2488 11.5701 10.181 11.6258 10.1242L13.3372 8.35799C13.4261 8.26506 13.4762 8.13978 13.4766 8.00911C13.4763 7.87946 13.4262 7.75525 13.3372 7.66379L11.6258 5.89317C11.5178 5.7771 11.4582 5.6219 11.4598 5.46093C11.4614 5.29995 11.5241 5.14605 11.6344 5.03231C11.7447 4.91857 11.8938 4.85406 12.0497 4.85264C12.2056 4.85123 12.3557 4.91302 12.468 5.02475L14.1793 6.79226C14.4914 7.11565 14.6667 7.55362 14.6667 8.01022C14.6667 8.46682 14.4914 8.9048 14.1793 9.22819L12.468 10.9944C12.413 11.0521 12.3474 11.0979 12.2751 11.129C12.2027 11.1602 12.1251 11.1761 12.0467 11.1757C11.889 11.1746 11.7382 11.1091 11.6271 10.9935L11.6258 10.9939ZM6.65052 8.61576C6.49495 8.61145 6.34715 8.54459 6.23858 8.42941C6.13002 8.31424 6.06928 8.15985 6.06928 7.99911C6.06928 7.83837 6.13002 7.68398 6.23858 7.56881C6.34715 7.45364 6.49495 7.38678 6.65052 7.38246H11.0225C11.1781 7.38678 11.3259 7.45364 11.4345 7.56881C11.543 7.68398 11.6038 7.83837 11.6038 7.99911C11.6038 8.15985 11.543 8.31424 11.4345 8.42941C11.3259 8.54459 11.1781 8.61145 11.0225 8.61576H6.65052Z" fill="black"/>
<path d="M1.85036 16C1.36766 15.99 0.906987 15.7895 0.562891 15.4398C0.218796 15.09 0.0173848 14.6175 0 14.1192V1.89728C0.016383 1.3971 0.216991 0.922245 0.560868 0.569647C0.904745 0.217048 1.36596 0.0133011 1.85036 0H9.65886C10.1443 0.012857 10.6068 0.21617 10.9522 0.568602C11.2977 0.921034 11.5002 1.39613 11.5187 1.89728V3.45279C11.5145 3.61336 11.4498 3.76589 11.3384 3.87793C11.2269 3.98998 11.0776 4.05267 10.922 4.05267C10.7665 4.05267 10.6172 3.98998 10.5057 3.87793C10.3943 3.76589 10.3296 3.61336 10.3254 3.45279V1.89728C10.3071 1.72283 10.2301 1.56054 10.1078 1.43871C9.98554 1.31688 9.82574 1.24325 9.65628 1.23063H1.85036C1.6819 1.24371 1.52331 1.31773 1.40249 1.43966C1.28167 1.5616 1.20636 1.72365 1.18982 1.89728V14.1192C1.20689 14.2911 1.28279 14.4511 1.40387 14.5703C1.52496 14.6896 1.68328 14.7603 1.85036 14.7698H9.65499C9.82292 14.7606 9.98224 14.6901 10.1046 14.571C10.227 14.4519 10.3045 14.2918 10.3233 14.1192V12.5161C10.3211 12.4337 10.335 12.3517 10.364 12.275C10.3931 12.1982 10.4367 12.1283 10.4924 12.0692C10.548 12.0102 10.6146 11.9633 10.6881 11.9312C10.7616 11.8992 10.8405 11.8827 10.9203 11.8827C11.0001 11.8827 11.0791 11.8992 11.1526 11.9312C11.2261 11.9633 11.2926 12.0102 11.3483 12.0692C11.404 12.1283 11.4476 12.1982 11.4766 12.275C11.5057 12.3517 11.5195 12.4337 11.5174 12.5161V14.1192C11.4977 14.6185 11.2942 15.0913 10.9484 15.4409C10.6025 15.7904 10.1405 15.9904 9.65671 16H1.85036ZM11.6258 10.9939C11.5701 10.937 11.5259 10.8693 11.4957 10.7947C11.4656 10.72 11.45 10.6399 11.45 10.559C11.45 10.4781 11.4656 10.3981 11.4957 10.3234C11.5259 10.2488 11.5701 10.181 11.6258 10.1242L13.3372 8.35799C13.4261 8.26506 13.4762 8.13978 13.4766 8.00911C13.4763 7.87946 13.4262 7.75525 13.3372 7.66379L11.6258 5.89317C11.5178 5.7771 11.4582 5.6219 11.4598 5.46093C11.4614 5.29995 11.5241 5.14605 11.6344 5.03231C11.7447 4.91857 11.8938 4.85406 12.0497 4.85264C12.2056 4.85123 12.3557 4.91302 12.468 5.02475L14.1793 6.79226C14.4914 7.11565 14.6667 7.55362 14.6667 8.01022C14.6667 8.46682 14.4914 8.9048 14.1793 9.22819L12.468 10.9944C12.413 11.0521 12.3474 11.0979 12.2751 11.129C12.2027 11.1602 12.1251 11.1761 12.0467 11.1757C11.889 11.1746 11.7382 11.1091 11.6271 10.9935L11.6258 10.9939ZM6.65052 8.61576C6.49495 8.61145 6.34715 8.54459 6.23858 8.42941C6.13002 8.31424 6.06928 8.15985 6.06928 7.99911C6.06928 7.83837 6.13002 7.68398 6.23858 7.56881C6.34715 7.45364 6.49495 7.38678 6.65052 7.38246H11.0225C11.1781 7.38678 11.3259 7.45364 11.4345 7.56881C11.543 7.68398 11.6038 7.83837 11.6038 7.99911C11.6038 8.15985 11.543 8.31424 11.4345 8.42941C11.3259 8.54459 11.1781 8.61145 11.0225 8.61576H6.65052Z" fill="black" fill-opacity="0.2"/>
<path d="M1.85036 16C1.36766 15.99 0.906987 15.7895 0.562891 15.4398C0.218796 15.09 0.0173848 14.6175 0 14.1192V1.89728C0.016383 1.3971 0.216991 0.922245 0.560868 0.569647C0.904745 0.217048 1.36596 0.0133011 1.85036 0H9.65886C10.1443 0.012857 10.6068 0.21617 10.9522 0.568602C11.2977 0.921034 11.5002 1.39613 11.5187 1.89728V3.45279C11.5145 3.61336 11.4498 3.76589 11.3384 3.87793C11.2269 3.98998 11.0776 4.05267 10.922 4.05267C10.7665 4.05267 10.6172 3.98998 10.5057 3.87793C10.3943 3.76589 10.3296 3.61336 10.3254 3.45279V1.89728C10.3071 1.72283 10.2301 1.56054 10.1078 1.43871C9.98554 1.31688 9.82574 1.24325 9.65628 1.23063H1.85036C1.6819 1.24371 1.52331 1.31773 1.40249 1.43966C1.28167 1.5616 1.20636 1.72365 1.18982 1.89728V14.1192C1.20689 14.2911 1.28279 14.4511 1.40387 14.5703C1.52496 14.6896 1.68328 14.7603 1.85036 14.7698H9.65499C9.82292 14.7606 9.98224 14.6901 10.1046 14.571C10.227 14.4519 10.3045 14.2918 10.3233 14.1192V12.5161C10.3211 12.4337 10.335 12.3517 10.364 12.275C10.3931 12.1982 10.4367 12.1283 10.4924 12.0692C10.548 12.0102 10.6146 11.9633 10.6881 11.9312C10.7616 11.8992 10.8405 11.8827 10.9203 11.8827C11.0001 11.8827 11.0791 11.8992 11.1526 11.9312C11.2261 11.9633 11.2926 12.0102 11.3483 12.0692C11.404 12.1283 11.4476 12.1982 11.4766 12.275C11.5057 12.3517 11.5195 12.4337 11.5174 12.5161V14.1192C11.4977 14.6185 11.2942 15.0913 10.9484 15.4409C10.6025 15.7904 10.1405 15.9904 9.65671 16H1.85036ZM11.6258 10.9939C11.5701 10.937 11.5259 10.8693 11.4957 10.7947C11.4656 10.72 11.45 10.6399 11.45 10.559C11.45 10.4781 11.4656 10.3981 11.4957 10.3234C11.5259 10.2488 11.5701 10.181 11.6258 10.1242L13.3372 8.35799C13.4261 8.26506 13.4762 8.13978 13.4766 8.00911C13.4763 7.87946 13.4262 7.75525 13.3372 7.66379L11.6258 5.89317C11.5178 5.7771 11.4582 5.6219 11.4598 5.46093C11.4614 5.29995 11.5241 5.14605 11.6344 5.03231C11.7447 4.91857 11.8938 4.85406 12.0497 4.85264C12.2056 4.85123 12.3557 4.91302 12.468 5.02475L14.1793 6.79226C14.4914 7.11565 14.6667 7.55362 14.6667 8.01022C14.6667 8.46682 14.4914 8.9048 14.1793 9.22819L12.468 10.9944C12.413 11.0521 12.3474 11.0979 12.2751 11.129C12.2027 11.1602 12.1251 11.1761 12.0467 11.1757C11.889 11.1746 11.7382 11.1091 11.6271 10.9935L11.6258 10.9939ZM6.65052 8.61576C6.49495 8.61145 6.34715 8.54459 6.23858 8.42941C6.13002 8.31424 6.06928 8.15985 6.06928 7.99911C6.06928 7.83837 6.13002 7.68398 6.23858 7.56881C6.34715 7.45364 6.49495 7.38678 6.65052 7.38246H11.0225C11.1781 7.38678 11.3259 7.45364 11.4345 7.56881C11.543 7.68398 11.6038 7.83837 11.6038 7.99911C11.6038 8.15985 11.543 8.31424 11.4345 8.42941C11.3259 8.54459 11.1781 8.61145 11.0225 8.61576H6.65052Z" fill="black" fill-opacity="0.2"/>
</g>
</svg>
