<svg width="48" height="48" viewBox="0 0 48 48" fill="none" xmlns="http://www.w3.org/2000/svg">
<path d="M9.6343 25.8024L14.3817 21.0501C15.0009 20.4303 16.033 20.4303 16.6522 21.0501C17.2714 21.67 17.2714 22.7031 16.8586 23.323L16.6522 23.5296L11.9048 28.2818C10.0471 30.1414 10.0471 33.4473 11.9048 35.3069C13.7625 37.1665 16.8586 37.1665 18.7163 35.5135L18.9227 35.3069L23.6701 30.5547C24.2894 29.9348 25.3214 29.9348 25.9406 30.5547C26.5599 31.1745 26.5599 32.2076 26.147 32.8275L25.9406 33.0341L21.1932 37.7864C17.8907 41.0923 12.7304 41.0923 9.42789 37.7864C6.33175 34.6871 6.12534 29.5216 9.22148 26.2156L9.6343 25.8024V25.8024ZM25.9406 9.47944C29.2432 6.17352 34.4034 6.17352 37.706 9.47944C41.0085 12.7854 41.0085 17.9509 37.706 21.2568L32.9585 26.009C32.3393 26.6289 31.3073 26.6289 30.688 26.009C30.0688 25.3892 30.0688 24.3561 30.688 23.7362L35.4355 18.984C37.2931 17.1244 37.2931 13.8185 35.4355 11.9589C33.5778 10.0993 30.2752 10.0993 28.4175 11.9589L23.6701 16.5045C23.0509 17.1244 22.0189 17.1244 21.3996 16.5045C20.7804 15.8847 20.7804 14.8516 21.3996 14.2317L25.9406 9.47944V9.47944ZM25.9406 18.7773C26.5599 18.1575 27.5919 18.1575 28.2111 18.7773C28.8304 19.3972 28.8304 20.4303 28.2111 21.0501L21.1932 28.0752C20.574 28.6951 19.5419 28.6951 18.9227 28.0752C18.3035 27.4554 18.3035 26.4223 18.9227 25.8024L25.9406 18.7773Z" fill="white"/>
</svg>
