<?xml version="1.0" standalone="no"?><!DOCTYPE svg PUBLIC "-//W3C//DTD SVG 1.1//EN" "http://www.w3.org/Graphics/SVG/1.1/DTD/svg11.dtd"><svg t="1664264744653" class="icon" viewBox="0 0 1024 1024" version="1.1" xmlns="http://www.w3.org/2000/svg" p-id="2591" xmlns:xlink="http://www.w3.org/1999/xlink" width="200" height="200"><path d="M660.666182 108.962909c9.216 4.002909 17.640727 9.728 24.715636 16.802909l208.709818 208.802909a79.592727 79.592727 0 0 1-24.110545 129.117091l-73.960727 32.768-138.705455 138.798546-11.031273 152.715636a79.639273 79.639273 0 0 1-135.866181 50.594909L375.714909 703.767273l-201.541818 202.286545A39.842909 39.842909 0 0 1 117.76 849.92l201.634909-202.472727-139.403636-139.403637A79.592727 79.592727 0 0 1 230.4 372.270545l157.184-11.729454 136.238545-136.378182 32.023273-73.774545a79.685818 79.685818 0 0 1 104.820364-41.425455z" p-id="2592"></path></svg>