<svg width="48" height="48" viewBox="0 0 48 48" fill="none" xmlns="http://www.w3.org/2000/svg">
<path d="M12.3846 7C11.9672 7.00062 11.5672 7.167 11.2724 7.4626C10.9775 7.75821 10.8119 8.15887 10.8119 8.57661V17.5761C10.8119 18.4473 11.5166 19.1527 12.3869 19.1527H19.5339C19.791 19.1603 20.0461 19.1047 20.2768 18.9907C20.5074 18.8767 20.7066 18.7077 20.8569 18.4987L25.7802 11.6761L35.7412 18.8561C35.9089 18.9803 36.0997 19.0699 36.3023 19.1198C36.5049 19.1696 36.7154 19.1786 36.9215 19.1463C37.1276 19.114 37.3253 19.0411 37.503 18.9317C37.6808 18.8223 37.835 18.6786 37.9568 18.509C38.0786 18.3395 38.1655 18.1474 38.2125 17.9439C38.2595 17.7404 38.2657 17.5296 38.2306 17.3237C38.1955 17.1178 38.12 16.921 38.0083 16.7446C37.8965 16.5682 37.7509 16.4157 37.5799 16.2961L26.3402 8.19822C26.0018 7.95444 25.5807 7.85492 25.1691 7.92148C24.7575 7.98803 24.3891 8.21522 24.1446 8.55325L21.1509 12.7015V8.57661C21.1509 8.15846 20.985 7.75745 20.6896 7.46178C20.3942 7.16611 19.9936 7 19.5759 7H12.3869H12.3846ZM13.9619 15.9995V10.1532H18.0032V15.9995H13.9619Z" fill="white"/>
<path d="M8.37358 19.1527C8.33988 19.1529 8.30666 19.1606 8.27638 19.1754C8.2461 19.1902 8.21954 19.2117 8.19869 19.2382C8.17783 19.2646 8.16321 19.2955 8.15592 19.3284C8.14863 19.3614 8.14885 19.3955 8.15658 19.4283L12.6879 38.329C12.7112 38.4294 12.8022 38.4995 12.9049 38.4995H35.2442C35.3469 38.4995 35.4379 38.4294 35.4612 38.329L39.9926 19.4283C40.0003 19.3955 40.0005 19.3614 39.9932 19.3284C39.9859 19.2955 39.9713 19.2646 39.9505 19.2382C39.9296 19.2117 39.903 19.1902 39.8728 19.1754C39.8425 19.1606 39.8093 19.1529 39.7756 19.1527H8.37124H8.37358ZM5.09291 20.1641C4.97407 19.6677 4.96917 19.1508 5.07859 18.6523C5.188 18.1537 5.40888 17.6865 5.72463 17.2856C6.04037 16.8848 6.44277 16.5609 6.90157 16.3381C7.36038 16.1153 7.86365 15.9996 8.37358 15.9995H39.7756C41.9572 15.9995 43.5649 18.0409 43.0562 20.1641L38.5249 39.0647C38.3478 39.8022 37.9279 40.4585 37.3327 40.928C36.7376 41.3974 36.0019 41.6527 35.2442 41.6527H12.9049C11.3462 41.6527 9.98824 40.5829 9.62424 39.0647L5.09291 20.1641ZM9.62424 39.0647L5.09291 20.1641Z" fill="white"/>
<path d="M14.4076 24.777C14.4076 23.9058 15.1123 23.2004 15.9826 23.2004H23.1763C23.594 23.2004 23.9946 23.3665 24.29 23.6622C24.5853 23.9579 24.7513 24.3589 24.7513 24.777C24.7513 25.1952 24.5853 25.5962 24.29 25.8919C23.9946 26.1875 23.594 26.3536 23.1763 26.3536H15.9826C15.5649 26.3536 15.1643 26.1875 14.8689 25.8919C14.5735 25.5962 14.4076 25.1952 14.4076 24.777Z" fill="white"/>
</svg>
