<?xml version="1.0" standalone="no"?><!DOCTYPE svg PUBLIC "-//W3C//DTD SVG 1.1//EN" "http://www.w3.org/Graphics/SVG/1.1/DTD/svg11.dtd"><svg t="1655102617281" class="icon" viewBox="0 0 1024 1024" version="1.1" xmlns="http://www.w3.org/2000/svg" p-id="11554" xmlns:xlink="http://www.w3.org/1999/xlink" width="64" height="64"><defs><style type="text/css">@font-face { font-family: feedback-iconfont; src: url("//at.alicdn.com/t/font_1031158_u69w8yhxdu.woff2?t=1630033759944") format("woff2"), url("//at.alicdn.com/t/font_1031158_u69w8yhxdu.woff?t=1630033759944") format("woff"), url("//at.alicdn.com/t/font_1031158_u69w8yhxdu.ttf?t=1630033759944") format("truetype"); }
</style></defs><path d="M341.333333 511.985778a42.666667 42.666667 0 0 1 42.666667-42.666667h512a42.666667 42.666667 0 0 1 0 85.333333H384a42.666667 42.666667 0 0 1-42.666667-42.666666M341.333333 853.319111a42.666667 42.666667 0 0 1 42.666667-42.666667h512a42.666667 42.666667 0 0 1 0 85.333334H384a42.666667 42.666667 0 0 1-42.666667-42.666667M341.333333 170.652444a42.666667 42.666667 0 0 1 42.666667-42.666666h512a42.666667 42.666667 0 0 1 0 85.333333H384a42.666667 42.666667 0 0 1-42.666667-42.666667M256 511.985778a85.333333 85.333333 0 0 1-170.666667 0 85.333333 85.333333 0 0 1 170.666667 0M256 170.652444a85.333333 85.333333 0 0 1-170.666667 0 85.333333 85.333333 0 0 1 170.666667 0M256 853.319111a85.333333 85.333333 0 0 1-170.666667 0 85.333333 85.333333 0 0 1 170.666667 0" p-id="11555"></path></svg>