<?xml version="1.0" standalone="no"?><!DOCTYPE svg PUBLIC "-//W3C//DTD SVG 1.1//EN" "http://www.w3.org/Graphics/SVG/1.1/DTD/svg11.dtd"><svg t="1655807060724" class="icon" viewBox="0 0 1024 1024" version="1.1" xmlns="http://www.w3.org/2000/svg" p-id="10321" xmlns:xlink="http://www.w3.org/1999/xlink" width="64" height="64"><defs><style type="text/css">@font-face { font-family: feedback-iconfont; src: url("//at.alicdn.com/t/font_1031158_u69w8yhxdu.woff2?t=1630033759944") format("woff2"), url("//at.alicdn.com/t/font_1031158_u69w8yhxdu.woff?t=1630033759944") format("woff"), url("//at.alicdn.com/t/font_1031158_u69w8yhxdu.ttf?t=1630033759944") format("truetype"); }
</style></defs><path d="M853.333333 191.573333l-62.293333-6.4a2735.786667 2735.786667 0 0 0-560.64 0L170.666667 191.573333A144.213333 144.213333 0 0 0 42.666667 337.066667v349.866666a144.213333 144.213333 0 0 0 128 145.493334l62.293333 6.4a2735.786667 2735.786667 0 0 0 560.64 0l59.733333-6.4a144.213333 144.213333 0 0 0 128-145.493334V337.066667a144.213333 144.213333 0 0 0-128-145.493334z m-213.333333 346.88l-165.973333 110.933334A32 32 0 0 1 426.666667 622.933333V401.066667a32 32 0 0 1 49.92-26.453334l165.973333 110.933334a31.573333 31.573333 0 0 1 0 52.906666z" p-id="10322"></path></svg>