<svg width="396" height="85" viewBox="0 0 396 85" fill="none" xmlns="http://www.w3.org/2000/svg">
<g clip-path="url(#clip0_3380_61577)">
<path d="M66.6004 28.2C65.0004 28.6 52.9004 28.6 50.9004 28.2C50.8004 27.6 50.7004 27 50.6004 26.4C50.4004 23.1 49.0004 20.4 46.7004 18.1C44.2004 15.7 41.2004 14.2 37.8004 13.5C36.8004 13.3 35.8004 13.3 34.9004 13.2C34.4004 13.2 33.8004 13.1 33.3004 13.1C29.0004 13 25.0004 13.8 21.1004 15.7C20.8004 15.9 20.5004 16.1 20.1004 16.2C16.4004 18.4 15.4004 23.5 18.2004 27.2C19.2004 28.5 20.4004 29.5 21.8004 30.3C23.0004 30.9 24.2004 31.5 25.5004 32C28.8004 33.4 32.3004 34.3 35.7004 35.2C39.1004 36.2 42.4004 37.1 45.7004 38.1C49.5004 39.5 53.0004 41 56.3004 43C60.6004 45.5 63.5004 49.1 65.2004 53.7C66.1004 56.1 66.5004 58.6 66.7004 61.2C66.8004 62 66.6004 62.9 66.5004 63.8C65.9004 67.4 64.4004 70.6 62.3004 73.5C60.5004 76 58.2004 78 55.5004 79.5C51.8004 81.6 48.0004 83.2 43.8004 83.9C40.2004 84.5 36.6004 85 33.0004 84.8C31.3004 84.7 29.6004 84.5 27.9004 84.2C26.5004 84 25.1004 83.8 23.6004 83.5C18.9004 82.7 14.5004 81.2 10.5004 78.4C5.40039 74.7 2.10039 69.8 1.00039 63.6C0.600391 61.7 0.400391 59.7 0.100391 57.8C0.000390626 57.4 0.000390626 56.9 0.100391 56.4C0.400391 56.4 0.700391 56.3 0.900391 56.3C5.90039 56.2 10.9004 56.3 16.0004 56.4C16.1004 56.7 16.2004 56.9 16.2004 57.1C16.3004 58.1 16.4004 59.1 16.6004 60C17.2004 63.4 19.0004 66 21.6004 68.1C23.3004 69.5 25.3004 70.3 27.5004 70.8C30.8004 71.6 34.2004 71.7 37.6004 71.6C37.8004 71.6 37.9004 71.6 38.1004 71.6C39.9004 71.1 41.7004 70.9 43.5004 70.2C45.8004 69.3 47.9004 67.9 49.3004 65.8C50.1004 64.6 50.8004 63.4 50.9004 62C51.0004 59.1 50.4004 56.5 48.3004 54.4C47.5004 53.6 46.6004 52.9 45.6004 52.2C43.2004 50.6 40.5004 49.6 37.7004 48.7C34.5004 47.7 31.3004 46.9 28.1004 46C24.2004 44.9 20.4004 43.8 16.6004 42.3C13.4004 41 10.4004 39.2 7.70039 37C4.40039 34.3 2.50039 30.8 1.70039 26.6C1.50039 25.4 1.30039 24.2 1.20039 22.9C0.900391 20.3 1.60039 17.8 2.50039 15.5C4.10039 11.7 6.70039 8.6 10.1004 6.4C13.6004 4.1 17.3004 2.5 21.4004 1.6C24.2004 1 27.0004 0.5 29.9004 0.2C31.5004 0.1 33.2004 0.1 34.8004 0.2C38.7004 0.4 42.6004 1 46.5004 2.1C49.9004 3.1 53.1004 4.4 56.0004 6.5C60.5004 9.7 63.5004 13.9 65.1004 19.2C65.7004 21.3 66.1004 23.3 66.4004 25.5C66.4004 25.9 66.5004 26.2 66.6004 26.6C66.6004 27 66.8004 27.6 66.6004 28.2Z" fill="#4DA04C"/>
<path d="M239.1 22.2999C239.5 22.2999 239.8 22.2 240.1 22.2C244.8 22.2 249.6 22.2 254.3 22.6C254.4 22.9 254.5 23.2 254.5 23.6C254.7 25.9 255.9 27.7 257.7 29.1C259.2 30.3 260.8 31.2 262.6 31.9C266.1 33.3 269.7 34.2999 273.3 35.2999C275.4 35.8999 277.6 36.5999 279.7 37.0999C282.9 37.8999 285.9 39.0999 288.9 40.2999C291.2 41.2999 293.4 42.3999 295.4 43.7999C299.4 46.4999 302.1 50.3 303.5 55C304.1 56.9 304.4 58.9 304.4 61C304.4 64.5 303.6 67.7 301.9 70.8C299.4 75.1 295.9 78.4 291.4 80.5C288.2 82 285 83.3 281.5 83.9C277.8 84.5 274.2 84.9999 270.5 84.6999C268.9 84.5999 267.2 84.3999 265.6 84.0999C264.2 83.8999 262.8 83.7 261.5 83.5C256 82.6 251 80.6 246.7 77C242.7 73.6 240.1 69.4 239 64.3C238.5 62 238.2 59.6 238 57.2C238 57 238 56.7999 238 56.5999C238.3 56.1999 238.7 56.2999 239.1 56.2999C242.4 56.2999 245.8 56.2999 249.1 56.2999C250.3 56.2999 251.5 56.2999 252.7 56.2999C253.1 56.2999 253.5 56.2 254 56.5C254.1 57.1 254.2 57.7 254.3 58.4C254.8 63 257 66.5 260.9 69C262.4 70 264 70.5 265.7 70.9C268.9 71.6 272.1 71.7999 275.4 71.5999C276.3 71.5999 277.1 71.2999 277.9 71.0999C280.6 70.5999 283.2 69.6 285.4 67.8C287.2 66.3 288.4 64.4 288.8 62C288.9 61.2 288.8 60.4 288.7 59.5C288.3 57.1 287.3 55 285.3 53.4C283.7 52.1 282 51.1999 280.1 50.2999C277.6 49.1999 275 48.3999 272.4 47.5999C268.8 46.5999 265.3 45.6999 261.7 44.5999C259.3 43.8999 256.9 43.0999 254.6 42.0999C251.6 40.9999 248.9 39.3 246.4 37.4C243.1 35 241.1 31.6999 240.1 27.7999C239.7 26.1999 239.3 24.6 239.3 22.9C239 22.8 239.1 22.5999 239.1 22.2999Z" fill="#4DA04C"/>
<path d="M135.699 48.4C135.499 48.4 135.199 48.3 134.899 48.3C132.599 48.2 130.399 48.1 128.099 48.1C119.999 48.1 111.799 48.1 103.699 48.1C102.999 48.1 102.199 48.1 101.399 48.1C101.399 47.8 101.299 47.6 101.299 47.3C101.299 42.9 101.299 38.6 101.299 34.2C101.299 33.8 101.199 33.5 101.499 33.1C102.699 33 103.999 33.1 105.299 33C106.599 33 107.899 33 109.099 33C110.399 33 111.699 33 112.899 33C114.199 33 115.499 33 116.699 33C117.999 33 119.299 33 120.499 33C121.699 33 123.099 33 124.299 33C125.599 33 126.899 33 128.099 33C129.399 33 130.699 33 131.899 33C133.199 33 134.399 33 135.599 33C135.999 32.7 135.899 32.3 135.899 31.9C135.899 27.5 135.899 23.2 135.899 18.8C135.899 13.6 135.899 8.4 135.899 3.1C135.899 2.7 135.899 2.2 135.899 1.7C136.199 1.7 136.399 1.6 136.599 1.6C138.099 1.5 139.599 1.5 140.999 1.5C143.999 1.5 147.099 1.6 150.099 1.6C150.499 1.6 150.799 1.7 151.099 1.7C151.199 1.8 151.199 1.9 151.199 2C151.199 28.7 151.199 55.4 151.199 82.1C151.199 82.5 151.199 82.9 151.099 83.3C150.599 83.6 149.999 83.5 149.499 83.5C147.599 83.5 145.599 83.5 143.699 83.5C141.299 83.5 138.899 83.4 136.499 83.4C136.299 83.4 135.999 83.4 135.799 83.4C135.399 83 135.599 82.6 135.599 82.2C135.599 78 135.599 73.9 135.599 69.7C135.599 63.5 135.599 57.3 135.499 51.1C135.499 50.5 135.499 49.9 135.499 49.4C135.999 49 135.999 48.7 135.699 48.4Z" fill="#4DA04C"/>
<path d="M352.501 51.1C352.501 47.4 352.501 43.9 352.501 40.3C352.501 40.2 352.601 40.1 352.601 39.9C353.001 39.6 353.401 39.7 353.801 39.7C355.901 39.7 357.901 39.7 360.001 39.7C371.401 39.7 382.901 39.7 394.301 39.8C394.801 39.8 395.301 39.7 395.701 39.9C395.701 40 395.801 40.2 395.801 40.3C395.801 54.5 395.801 68.6 395.701 82.8C395.701 83 395.701 83.2 395.601 83.5C395.301 83.5 395.001 83.6 394.601 83.6C393.901 83.6 393.101 83.6 392.401 83.6C389.001 83.6 385.601 83.6 382.201 83.5C381.901 83.5 381.601 83.5 381.301 83.4C381.301 83 381.201 82.7 381.201 82.4C381.201 76.8 381.201 71.3 381.201 65.7C381.201 65.2 381.201 64.7 381.201 64.3C380.901 64 380.601 64.2 380.501 64.4C379.301 65.2 378.201 66.1 377.001 66.9C371.801 70.6 366.601 74.3 361.501 78C359.601 79.4 357.601 80.8 355.701 82.2C353.701 83.6 353.701 83.6 351.401 83.6C345.401 83.6 339.301 83.6 333.201 83.6C332.801 83.6 332.301 83.6 331.801 83.4C332.001 82.9 332.401 82.6 332.801 82.4C334.001 81.5 335.201 80.6 336.501 79.7C341.801 75.8 347.201 72 352.501 68.1C358.301 63.9 364.201 59.7 370.001 55.4C371.601 54.2 373.301 53.1 375.001 52C375.201 51.8 375.401 51.7 375.601 51.5C375.501 51.2 375.301 51.1 375.101 51.1C374.601 51.1 374.001 51 373.501 51C367.001 51 360.401 51 353.901 51C353.401 51.1 353.001 51.1 352.501 51.1Z" fill="#4DA04C"/>
<path d="M327.5 42.4C326.1 42.6 313.9 42.5 312.7 42.3C312.7 42.2 312.6 42 312.6 41.9C312.7 40.6 312.7 39.4 312.8 38.1C312.9 37.1 313 36.1 313.1 35.2C313.3 32.7 313.9 30.3 314.6 27.9C315.8 24.1 317.4 20.5 319.6 17.2C321.8 13.9 324.5 11.1 327.6 8.70001C331.1 6.00001 335 4.10001 339.2 2.70001C341.5 1.90001 343.9 1.40001 346.4 0.900013C347.2 0.800013 347.9 0.600013 348.7 0.600013C350.1 0.500013 351.5 0.400013 352.9 0.300013C353.4 0.300013 353.9 0.300013 354.4 0.200013C356.7 1.29864e-05 359 0.200013 361.3 0.500013C362.7 0.700013 364.1 0.800013 365.5 1.10001C370 1.90001 374.4 3.00001 378.5 5.00001C381.5 6.50001 384.3 8.50001 386.6 10.9C388.9 13.3 390.7 16.1 392.1 19C393.4 21.6 394.3 24.4 395.1 27.2C395.3 27.9 395.5 28.5 395.6 29.2C394.1 29.6 381.5 29.6 379.1 29.2C378.9 28.8 378.7 28.4 378.5 27.9C377.9 26.5 377.1 25.3 376.3 24C374.9 21.9 373.2 20.1 371 18.7C367.7 16.5 364.2 15.1 360.3 14.6C359.4 14.5 358.5 14.4 357.6 14.4C355.1 14.3 352.7 14.3 350.2 14.7C348.9 14.9 347.6 15.2 346.4 15.7C342 17.1 338.2 19.5 335 22.8C331.9 26.1 330 30 328.9 34.3C328.3 36.6 328 38.9 327.7 41.2C327.7 41.7 327.6 42 327.5 42.4Z" fill="#4DA04C"/>
<path d="M93.6008 83.4C93.2008 83.4 92.9008 83.5 92.6008 83.5C88.0008 83.5 83.5008 83.4 78.9008 83.4C78.7008 83.4 78.6008 83.4 78.5008 83.3C78.4008 83.2 78.4008 83.2 78.3008 83.2V83.1C78.3008 82.3 78.3008 81.5 78.3008 80.6C78.3008 54.4 78.3008 28.1 78.3008 1.90001C78.3008 1.80001 78.4008 1.70001 78.4008 1.70001C78.7008 1.40001 79.1008 1.50001 79.5008 1.50001C82.8008 1.50001 86.0008 1.50001 89.3008 1.50001C90.4008 1.50001 91.5008 1.50001 92.6008 1.50001C93.0008 1.50001 93.4008 1.40001 93.9008 1.80001C93.9008 28.7 94.1008 55.7 93.8008 82.7C93.7008 82.9 93.6008 83.2 93.6008 83.4Z" fill="#4DA04C"/>
<path d="M227.2 83.3C226.6 83.6 226 83.6 225.5 83.6C223.7 83.6 221.9 83.6 220.1 83.6C205.3 83.6 190.6 83.5 175.8 83.5C173.2 83.5 170.5 83.5 167.9 83.4C167.6 83.4 167.3 83.4 167.1 83.3C167 83.2 167 83.1 167 83C167 78.2 167 73.5 166.9 68.7C166.9 68.5 166.9 68.3 167 68C167.3 67.9 167.6 67.8 167.8 67.8C168.9 67.8 169.9 67.8 171 67.8C183.8 67.8 196.7 67.8 209.5 67.8C214.8 67.8 220.2 67.8 225.5 67.8C226 67.8 226.6 67.8 227 67.9C227.3 68.3 227.2 68.7 227.2 69.1C227.2 72.9 227.2 76.7 227.2 80.6C227.2 81.6 227.2 82.4 227.2 83.3Z" fill="#4DA04C"/>
<path d="M227.1 16.8C226.5 16.8 226.1 16.9 225.7 16.9C213.6 16.9 201.6 16.9 189.5 16.9C182.4 16.9 175.3 16.9 168.3 16.9C167.9 16.9 167.5 16.9 167.2 16.9C167.1 16.8 167.1 16.8 167 16.7C166.9 16.6 167 16.6 167 16.6C167 15.4 167 14.2 167 13C167 9.4 167 5.8 167 2.1C167 2 167 1.9 167.1 1.8C167.3 1.7 167.6 1.6 167.9 1.6C169 1.6 170 1.6 171.1 1.5C184.2 1.5 197.3 1.5 210.4 1.5C215.5 1.5 220.6 1.5 225.7 1.5C226.2 1.5 226.7 1.5 227.1 1.5C227.5 1.8 227.5 2.2 227.5 2.5C227.5 4.5 227.5 6.5 227.5 8.4C227.5 10.9 227.4 13.3 227.4 15.8C227.1 16.1 227.1 16.3 227.1 16.8Z" fill="#4DA04C"/>
<path d="M227.1 35.4C227.4 37.3 227.3 48 227 49.6C226.6 49.8 226.2 49.8 225.8 49.8C224.9 49.8 223.9 49.8 223 49.8C207.7 49.8 192.4 49.7 177.1 49.7C174.1 49.7 171.1 49.7 168.1 49.7C167.8 49.7 167.5 49.7 167.1 49.7C167.1 49.4 167 49.2 167 49C167 45 166.9 40.9 166.9 36.9C166.9 36.5 166.8 36.1 167 35.7C167.5 35.4 168 35.5 168.6 35.5C173.3 35.5 178.1 35.5 182.8 35.5C195.1 35.5 207.3 35.5 219.6 35.5C221.7 35.5 223.7 35.5 225.8 35.5C226.1 35.3 226.6 35.4 227.1 35.4Z" fill="#4DA04C"/>
<path d="M270.7 0.299969C271.6 -3.12328e-05 272.5 -3.12477e-05 273.3 0.0999688C275.5 0.399969 277.7 0.599969 279.9 0.999969C284 1.59997 287.9 2.89997 291.5 4.89997C296.3 7.59997 299.9 11.4 302 16.6C302.8 18.6 303.5 20.7 303.9 22.9C304.2 24.6 304.3 26.2 304.3 27.9C304.3 28 304.2 28.1 304.2 28.3C303.9 28.3 303.7 28.4 303.4 28.4C300.1 28.6 296.8 28.6 293.5 28.5C292.3 28.5 291 28.5 289.8 28.4C289.5 28.4 289.2 28.4 288.8 28.3C288.7 27.7 288.6 27.1 288.5 26.5C288.1 22.7 286.4 19.5 283.3 17.2C280.7 15.2 277.8 13.9 274.6 13.4C273.6 13.3 272.6 13.2 271.5 13.1C271.3 13.1 271.1 13.1 270.8 13C270.8 12.8 270.7 12.6 270.7 12.4C270.7 8.49997 270.6 4.59997 270.6 0.699969C270.6 0.599969 270.7 0.499969 270.7 0.299969Z" fill="#4DA04C"/>
</g>
<defs>
<clipPath id="clip0_3380_61577">
<rect width="395.9" height="84.7" fill="white"/>
</clipPath>
</defs>
</svg>
